<?xml version="1.0" encoding="utf-8"?>
<!-- Generator: Adobe Illustrator 25.4.1, SVG Export Plug-In . SVG Version: 6.00 Build 0)  -->
<svg version="1.1" id="class-icons" xmlns="http://www.w3.org/2000/svg" xmlns:xlink="http://www.w3.org/1999/xlink" x="0px"
	 y="0px" viewBox="0 0 64 64" style="enable-background:new 0 0 64 64;" xml:space="preserve">
<style type="text/css">
	.st0{fill:url(#SVGID_1_);}
</style>
<g id="crusader_00000169523474912232037530000013399169235449431204_">
	<g>
		<linearGradient id="SVGID_1_" gradientUnits="userSpaceOnUse" x1="32" y1="60.4679" x2="32" y2="3.5321">
			<stop  offset="0" style="stop-color:#9B7644"/>
			<stop  offset="1" style="stop-color:#D7AB6D"/>
		</linearGradient>
		<path class="st0" d="M25.2,9.2c0.2,0.1,0,0.1,0.4,0.2C26.9,8,29,6.9,30.7,5.9c0.1-0.8,0.1-1.6,0.2-2.4h-0.4
			c-0.6,0.9-5.3,4-6.4,4.6C24.4,8.6,24.8,8.9,25.2,9.2z M54.2,25c-0.4-2.2-2.1-4.3-2.9-6.2c-0.6-1.3-0.8-2.9-1.7-3.9
			c-0.7-0.5-4.6,0.7-6.1-0.2L43,14.6c0.1-1.7,1-1.6,1.7-2.6h0.2v-0.2c-2.7-1.7-5.3-3.9-7.9-5.7c-1.2-0.8-2.8-1.4-3.7-2.6h-0.4
			c0,0.5,0,0.8,0.2,1.1c0,1.9,1.1,1.8,2.2,2.6c2.3,1.6,4.5,3.5,7.2,4.8c-0.4,1.9-1.6,2-0.6,4.2c0.6,0.1,1.1,0.2,1.7,0
			c0.1,0.3,0.2,0.4,0.2,0.9h2.8c-0.1,0.4-0.2,0.7-0.4,0.9c-0.3,0.5-1.2,0.4-2,0.4c0.3,0.4,0.5,0.7,0.9,0.9v0.2
			c-1.7-0.1-1.4-0.8-2.4-1.3c-0.6-0.1-1.1-0.2-1.7-0.4c-1.1-0.5-1.6-1.4-2.4-2.2c0-1.6,0.4-2.3,1.7-2.6v-0.4c-1.9-0.9-5.2-4-7-4.2
			c0,0.7-0.1,1.1-0.4,1.5c-0.3,0.4-0.2,0.4-0.7,0.6c-0.2,0.1,0,0.1-0.4,0.2c-0.2-0.2-0.5-0.4-0.7-0.6c-0.2-0.5-0.4-0.9-0.4-1.7
			c-2.3,0.4-4.8,3.2-7,4.2c0.3,0.5,0.8,0.7,1.3,0.9c0.3,1.1,0.1,2.8,0.7,3.7v0.6c-0.5-0.2-1.3-0.7-2-0.6c-0.3,0.1-0.8,0.6-1.1,0.7
			c-1,0.4-4.8,0.9-5.9,0.2c-1.6,0.2-2.1,4.6-3.3,5.7c0.3,1.2,1.7,1.3,2.4,2.2c1,1.3,2.1,2.9,2.8,4.4c1,2.4,2.7,9.9,1.8,13.8
			c-0.2,1.1-0.6,2.1-0.7,3.3c1.4,1.2,6.2,6.1,6.8,7.7h0.4c0.5-0.7,1-1.2,1.3-2.2c-0.8-0.8-1.6-1.8-2.6-2.4v-0.2
			c0.6,0,2.8,1.5,3.1,1.8c2-0.3,1.8-3,1.8-5.3V31.8c-0.6-0.6-1.2-0.9-1.8-1.5c-3.5,0.5-3.5,2.5-5.3,4.4v0.4H23
			c0.4-6.6-1.9-11.2-5.3-14.5v-0.4c3,1.3,6.3,2.5,9.2,4v0.4c-0.5-0.2-1.5-0.6-2-0.2h-0.4c-0.3,1.2-0.1,2.1,0.4,2.9
			c1,0.2,2.4,0.2,3.7,0.2c0.5-0.4,1-0.7,1.5-1.1c0.4-1.6,0.4-4.1,0.4-6.2c-0.9-0.9-1.5-1.5-3.5-1.5c0.4-1.2,1.9-1.8,2.6-2.8
			c0.9-1.4,1.5-3.1,2.2-4.6c1.2,0.3,1.5,1.9,2,2.9c0.8,1.6,2,3.1,3.5,4c-0.4,0.6-2,0.5-2.6,0.9c-1.3,0.9-0.8,4.4-0.7,6.8
			c0.3,0.4,0.6,0.7,0.9,1.1c0.5,0.2,1,0.4,1.5,0.6c0.4,0.6,0.1,1.2,0.6,1.7v0.2c0.3-0.4,0.3-1.3,0.6-1.7c0.3-0.4,1.6-0.6,2-0.7
			c0.2-0.6,0.7-1.7,0.2-2.4v-0.4c-0.9-0.2-1.5,0-2.6,0c0.2-0.2,0,0,0.2-0.2c0.8-1.1,5.1-2.5,6.6-2.9c1-0.3,1.7-0.1,2.4-0.6h0.9V21
			c-2.5,1.6-5.4,6.2-6.2,9.6c-0.4,1.6,0.4,3.5,0,4.4c-0.2,0.2,0,0-0.2,0.2c-0.4-1.5-1.4-3.1-2.6-3.9c-0.7-0.4-1.6-0.5-2.2-0.9
			c-1,0.1-1.4,0.5-2,0.9c0,3.1,0.7,11.8-0.9,13V45c0.4-0.1,0.4-0.2,0.7-0.4c1,3.1-0.9,6.3,1.7,8.1c-0.6,2.3-2.2,4.1-3.1,6.1
			c-0.9-0.2-2.2-3.8-2.8-4.8c-1.2,0.1-1.5,0.9-2.4,1.5c0.6,1.7,3.5,3.4,4.6,5c1.9-0.3,2.6-2.2,3.7-3.3c3.1-3.1,5.7-6.7,9-9.6
			c0-0.8-0.2-1.7-0.6-2.2c-0.2-1.5-2.3-2.7-3.3-3.3v-0.2c1,0.3,2.3,1,2.9,1.7h0.2c0-7.6,1.6-17.3,7-19.1c-0.3-1.4-1.7-4.8-2.6-5.9
			c-0.3-0.5-0.2-0.3-0.9-0.4c0.2-0.6,0.4-0.7,0.6-1.3c0.3-0.1,0.2,0,0.4-0.2c2,0.2,3.6,6.1,4.8,7.7c-1,1.4-2.9,2-3.9,3.3
			c-2,2.7-2.5,5.5-3.5,9.4c-0.2,0.9-1.1,3.4-0.4,4.6v0.2h0.2c0.3-1.5,0.8-2.9,1.1-4.2c0.9,0,3.7-0.3,4.4,0h0.6v-0.4
			c-1.4-0.8-2.4-2.2-3.7-3.1C47.8,30.4,51.7,26.5,54.2,25z M23.7,41.4c0.3,0.4,0.3,1.1,0.6,1.5c-0.1,0.3,0,0.2-0.2,0.4v0.2
			C23.3,43,23.6,42.2,23.7,41.4z M23.6,45h0.4c0.1,0.5,0.6,2.8,0.9,3.3v0.4c-1-0.1-1.8-0.6-2.2-1.3c-0.1-0.2-0.1,0-0.2-0.4
			C23,46.6,23.4,45.8,23.6,45z M43.8,30.2v0.2h-0.2c0.2-1.1,0.8-1.7,1.3-2.6h0.9C45.6,28.8,44.5,29.7,43.8,30.2z M15.3,16.8
			c3.9,0.2,4.7,0.9,7.2-1.5c0-1.5-0.6-1.9-0.9-2.9c1.4-1.1,3.4-2,1.3-3.3c-1.3,0.9-2.6,1.8-3.9,2.8c0.4,0.6,1.2,1.2,1.8,1.7
			c0,0.6-0.1,0.9-0.2,1.3C19.3,15,15,14.5,14,15.1c-0.9,0.5-0.9,1.9-1.3,2.9c-0.6,1.6-1.9,5.1-2.9,6.2v0.4c0.4-0.1,0.9-0.1,1.3-0.2
			C12.4,21.8,13.8,19.2,15.3,16.8z M17.9,36.8c-0.3-0.2-1.5,0.3-1.8,0.7h-0.2c0-1.6,1-2.7,1.8-3.5c-0.1-3.4-3.5-7.9-6.1-8.8
			c-0.3,0.2-0.9,0.4-1.3,0.6c1.9,2.8,5.8,3.7,5.9,8.4c-1.1,1-2.3,2.4-3.7,3.1v0.2h0.2c0.3,0.2,3.5,0.5,4,0.2
			c1.3,0.2,1.7,2.9,1.8,4.2h0.2c0.4-1.1,0.4-3.6-0.4-4.6C18.2,36.8,18.4,37,17.9,36.8z"/>
	</g>
</g>
</svg>
