<?xml version="1.0" encoding="utf-8"?>
<!-- Generator: Adobe Illustrator 25.4.1, SVG Export Plug-In . SVG Version: 6.00 Build 0)  -->
<svg version="1.1" id="class-icons" xmlns="http://www.w3.org/2000/svg" xmlns:xlink="http://www.w3.org/1999/xlink" x="0px"
	 y="0px" viewBox="0 0 64 64" style="enable-background:new 0 0 64 64;" xml:space="preserve">
<style type="text/css">
	.st0{fill:url(#SVGID_1_);}
</style>
<g id="necromancer_00000092417320045353894620000004926683273285287561_">
	<g>
		<linearGradient id="SVGID_1_" gradientUnits="userSpaceOnUse" x1="32" y1="57.1789" x2="32" y2="6.8211">
			<stop  offset="0" style="stop-color:#9B7644"/>
			<stop  offset="1" style="stop-color:#D7AB6D"/>
		</linearGradient>
		<path class="st0" d="M47.4,52.7c-0.1-4-3.8-3.7-4.3-6.6c-0.5,0-0.8,0-1-0.2c-0.3-1.2-0.5-2.3-0.8-3.5c-0.6-1.1-1.9-2.2-2.7-3.3
			c-2.8-4-5.3-8-8.2-12.1c-0.5-0.7-1.3-1.3-1.8-2c-0.7,0.1-1.4,0.1-2,0.2c0.2-1.3,1.4-2.5,0.4-3.9c0-0.3,0-0.5,0-0.8
			c-0.4,0.1-0.2,0-0.4,0.2c-0.9,0-1.1-0.1-1.6-0.4c0.1-1,0.1-1.9,0.2-2.9c-0.5-0.4-1-1.2-1.2-1.8c-0.1,0-0.3,0-0.4,0
			c-0.8,0.9-1.3,1.7-2,2.7c0,0.1,0,0.3,0,0.4c-0.1,0-0.1,0-0.2,0c-0.1-1.1-0.4-1.9,0.2-2.7c0-0.6,0-1.2,0-1.8
			c-0.6,0.3-0.8,0.5-1,1.2c-0.1,0-0.3,0-0.4,0c0.2-0.5,0.3-1.7,0.6-2.3c0-2.6-2.1-5.1-3.5-6.3c-1.4,3-3.3,5.1-5.1,7.6
			c-0.4,0.5-1.3,1.1-1.6,1.6c-0.7,1.1,0.4,3.5-0.6,4.7c0,0.1,0,0.1,0,0.2c-0.6-0.3-0.5-0.6-0.8-1c-0.1-0.4,0-0.2-0.2-0.4
			C6.5,24,5.1,29.1,3.8,34.7c-1,3.9,1.4,10.7,3.1,11.9c0,0.1,0,0.3,0,0.4c0.1,0,0.3,0,0.4,0c-1.3-7-0.3-12,2.7-16.8
			c1.5-2.4,2.8-4.6,5.1-6.1c-0.4-1.2-1.4-1.9-2-2.9c-1.2,0.2-2.1,1.6-2.7,2.5c-0.1,0-0.1,0-0.2,0c0.4-1,1.1-1.9,1.2-3.1
			c0.6-0.1,1.1-0.2,1.8-0.2c0-0.2,0-0.4,0-0.6c0.5-0.6,1-1.2,1.4-1.8c0.6-0.1,1.2-0.3,1.6-0.6c3.1-0.1,3.6,1.6,4.5,3.7
			c0.7,0.1,2.2,0.2,2.9,0.4c0.1,0.4,0,0.2,0.2,0.4c-0.1,0.8-0.3,0.9-0.8,1.2c0.7,1.9,4,3.9,5.3,5.7c4.1,5.8,8.1,11.7,12.1,17.4
			c1.3,1.8,3.4,6.5,5.5,7.2c0,0.5,0,0.8-0.2,1c0.2,1.6,2.9,2,3.9,2.9c0.1,0,0.3,0,0.4,0c-0.4-1.2-0.8-2.7-0.8-4.1
			C48.6,52.9,48.1,52.7,47.4,52.7z M37.3,20.5c0,0.6,0,0.9-0.2,1.2c-0.1,1.7-2.8,5.5-3.9,6.3c0.2,1.3,0.9,1.6,1.2,2.7
			c0.1,0,0.1,0,0.2,0c1.3-2,4.3-6.4,6.6-7.2c-0.2-1-0.5-1-0.8-1.8c0.3-0.2,0.4-0.3,0.6-0.6c3.5,0.1,2.2-0.6,3.5-2.5
			c0.3-0.5,0.9-0.7,1.2-1.2c0.4-0.1,0.2,0,0.4-0.2c-1.1-0.4-1.6-1.1-2.9-1.2c-0.1-0.6-0.2-0.7-0.6-1c0-0.1,0-0.1,0-0.2
			c1.1,0.7,3,1.2,4.7,1.2c0.2,0.4,0.4,0.9,0.6,1.2c0.2,0.1,0.5,0.3,0.6,0.4c0.2,0,0.4,0,0.6,0c0.5-2.1,1.1-3.5,1-6.1
			c-1.3-1.2-2.4-2.8-2.9-4.7c-0.1,0-0.1,0-0.2,0c-2.2,3.4-5.4,6.4-7.6,9.8c-0.5,0.8-0.5,2.3,0,3.1c-0.2,0.6-0.4,0.6-0.6,1
			C38.4,20.7,37.9,20.6,37.3,20.5z M29.4,14.4c0,0.3,0,0.7,0,1c1.5-0.5,2-2.2,3.3-3.1c0.2-0.2,0,0,0.2-0.2c0.5,0.7,1.4,1,2,1.6
			c1.1,1.2,2.2,2.5,3.3,3.7c0,0.1,0,0.1,0,0.2c0.1,0,0.1,0,0.2,0c-0.3-1.7-4.4-7.3-5.7-8c-0.8,1.6-2.7,2.5-3.3,4.3
			c-0.1,0-0.1,0-0.2,0C29.1,14.4,29.2,14.2,29.4,14.4z M60.5,39.2c-0.1-8.5-2.2-14.5-5.1-20.1c-0.9-1.8-1.8-4.6-3.7-5.3
			c-0.3,0.5-0.7,1-1,1.4c-0.4,1-0.3,2.1-0.8,2.9c0.3,0.5,0.7,1.1,1.2,1.4c0,2.2-0.6,3.3-1.8,4.1c1,1.4,2.7,2.3,3.7,3.7
			c1,1.5,2.2,3.4,3.1,4.9c0.1,0.5,0.3,1.1,0.4,1.6c0.5,0.4,1,0.8,1.4,1.2c0.9,1.2,1.5,2.7,2.5,3.9c0,0.1,0,0.1,0,0.2
			C60.3,39.2,60.4,39.2,60.5,39.2z M28.3,16.4c0.2-0.3,0.1-0.6-0.2-1c-0.3,0.7-0.7,1.5-1.2,2c0,0.2,0,0.4,0,0.6
			C27.5,17.8,28.1,17.1,28.3,16.4z M22,24.8c-1,1.5-2.3,2.8-3.3,4.3c-1.1,1.8-1.7,4-3.1,5.5c0,0.1,0,0.3,0,0.4
			c0.6-0.4,1.3-0.8,1.8-1.2c2.9,0.1,6,2.1,7.6,3.7c0.1,0,0.1,0,0.2,0c-0.3-1.4-4.6-4.6-5.9-5.3C19.6,30.6,22.2,25.3,22,24.8z
			 M45.9,30.8c0-0.9,0-1.8,0-2.7c-0.9-1-1.5-2.7-2.9-3.3c0.2,0.9,2.1,5,2.7,5.7c0,0.1,0,0.1,0,0.2C45.8,30.8,45.9,30.8,45.9,30.8z
			 M40.2,37.3c-0.1,0-0.1,0-0.2,0c0,0.1,0,0.3,0,0.4c1.6-0.9,6.9-5.3,8.8-3.5c0.1,0,0.3,0,0.4,0c-0.3-1.1-1.1-3-2-3.5
			C45.6,33.3,41.1,34.8,40.2,37.3z M29.6,33.4c-2.9,4.8-6.6,9.2-9.8,13.7c-1,1.5-1.7,3.1-2.9,4.5c0.2,1,1,1.4,1.8,1.6
			c3.3-3.5,5.8-8,8.6-12.1c1.1-1.7,3.1-3.3,3.7-5.3C31.2,35.4,30.2,33.7,29.6,33.4z M57.6,38.3c0,2,0.5,5.7-0.4,7.2c0,0.5,0,1,0,1.4
			c0.1,0,0.1,0,0.2,0c0.9-1.7,2.5-3.8,2.7-6.1C59.2,39.9,59,38.8,57.6,38.3z M29.1,41.4c-0.7,1.3,0.2,1.5,0.4,3.3
			c0.3,3.2-0.4,5.8,0.2,8.8c0.2,1-0.2,2.4,0.2,3.1c0,0.1,0,0.1,0,0.2c0.1,0,0.1,0,0.2,0c0-0.9,0-1.7,0.4-2.3
			C30.6,51.2,31.4,42.2,29.1,41.4z M35.7,41.6c-0.3,0.5-0.6,0.6-0.8,1.2c-0.4,0.6-0.4,7.8,0,8.4c0,0.8,0,1.5,0,2.3
			c0.5-0.2,0.5-0.2,0.8-0.4c0.1-2.8,0.1-5.6,0.2-8.4c0-1.2,0.7-1.8,0.4-2.5C36.1,41.7,36.3,41.9,35.7,41.6z M16.5,53.1
			c-0.3-0.2-0.7-0.2-1.2-0.2c-0.2,0.9-0.3,2.5-0.8,3.3c0,0.3,0,0.7,0,1c1.3-0.7,2.6-1.7,4.1-2C18.4,54,17.4,53.3,16.5,53.1z
			 M35.1,56.8c0.1,0,0.1,0,0.2,0c0.1-0.6,0.3-1.1,0-1.6C35.1,55.5,35.1,56.1,35.1,56.8z"/>
	</g>
</g>
</svg>
