<?xml version="1.0" encoding="utf-8"?>
<!-- Generator: Adobe Illustrator 25.4.1, SVG Export Plug-In . SVG Version: 6.00 Build 0)  -->
<svg version="1.1" id="class-icons" xmlns="http://www.w3.org/2000/svg" xmlns:xlink="http://www.w3.org/1999/xlink" x="0px"
	 y="0px" viewBox="0 0 64 64" style="enable-background:new 0 0 64 64;" xml:space="preserve">
<style type="text/css">
	.st0{fill:url(#SVGID_1_);}
</style>
<g id="barbarian">
	<g>
		<linearGradient id="SVGID_1_" gradientUnits="userSpaceOnUse" x1="32" y1="60.4679" x2="32" y2="3.5321">
			<stop  offset="0" style="stop-color:#9B7644"/>
			<stop  offset="1" style="stop-color:#D7AB6D"/>
		</linearGradient>
		<path class="st0" d="M22.2,31h0.2c-0.4,1.5-1.2,3.1-2.2,4.1c0.1,0.9,0.3,1.7,0.7,2.2v0.4c0.7-0.5,1.7-0.9,2.4-1.5
			c0.5-0.7,0.2-1.6,0.2-2.8c2.3,1.1,6.7,3.1,8.1,5c1.1-0.1,2.4-1.1,2.9-1.8c0.1-0.3,0.2-0.1,0-0.4v-2.6c-0.9,0.3-1.8,1-2.2,1.7
			c-1.2-0.2-4.4-2.7-4.8-3.7c-0.5-0.8,0-2.6-0.6-3.3v-0.4c0.9,0,0.9,0.2,1.5,0.6c0.2-0.2,0,0,0.2-0.2c-0.4-3.2-1-9-2.8-10.9
			c-0.2-0.1,0-0.1-0.4-0.2c-0.8,1.8,1,5.2,0,6.8c-0.1,0.2-0.1,0.4-0.2,0.6c-1-0.1-1.5-0.7-2-1.3c-1.4,0.2-6.2,3.6-6.8,4.6h-0.4
			C16,26,16.5,23,15.5,21.8v-2.6c0,0,3.9-3.4,4.1-3.5c-0.1-3.9-0.3-8.4-0.7-12.2h-0.4c-0.3,2.5-0.9,4.9-1.7,7.4
			c-0.2,0.8-0.1,2-0.6,2.6c-1,1.2-2.6,2-3.9,2.9c-0.8,0.6-1.5,1.5-2.4,2c-0.1,2.9-1,6.2,0.4,7.9c-0.6,1.8,0.5,7.6,1.8,9v0.2
			c0.3-0.4,0.3-1.7,0.4-2.2c1.8-0.6,3.4-0.3,4.4-1.7h0.2c-0.2,0.6-0.5,1-0.9,1.3c0.3,0.7,1,0.8,1.5,1.3C18.8,34.1,21.6,31.8,22.2,31
			z M53.3,25.8c0.4-1.4,1-3.3,1.1-5c-1,0.1-1.8,0.5-2.4,1.1h-0.2c0.2-1.5,1.2-2.1,1.8-3.1h0.2v-0.2c-2.1-1.2-3.5-2.8-5.2-4.4
			c-0.4-0.4-0.9-0.7-1.3-1.1c-0.7-3.2-1.4-6.4-2-9.6c-0.9,0.5-0.3,1.7-0.6,2.9c-0.6,2.7,0,6,1.5,7.4v0.6c-0.6-0.3-1.1-0.7-1.5-1.3
			h-0.4c0,0.6,0,1.2-0.2,1.5c0.1,2.3,3,3.5,3.7,5.7c0.4,1.3-0.5,3.2,0,4.1c0,1.3-0.3,3.4,0.3,3.7c1,0.4,1.3,1.1,1.8,1.5
			c-0.8-0.2-2.3-1.3-3.1-0.7h-0.4c0.2-0.3,0.5-0.7,0.7-0.9c-0.2-1.3-4.8-3-5.9-4.1c-1.3,0.2-1.6,1-3.1,1.1c0-2.3,0.8-6.8,0.2-7.6
			c-0.2-0.1,0-0.1-0.4-0.2c-0.8,1.7-1.5,3.8-2,5.9c-0.3,1.3-0.1,2.7-0.7,3.7v1.5c0.6-0.2,0.7-0.3,1.5-0.4c-0.1,2-0.2,3.8-1.3,4.8
			c0,0.7,0,1.4,0.2,1.8c2,0.1,3.4,0,4.6-1.1h0.2c0,1.5-0.1,5-0.7,5.9c-0.2,0.4-0.4,0.4-0.9,0.6c-0.2,1-0.4,2-0.6,2.9H38
			c-0.3-0.8-0.3-2.1-0.7-2.8c-0.3-0.5-0.7-0.4-1.1-0.7h-0.4c0.1,1.4,0.8,3.4,0.4,5.2c-1.2,4.6-3,8.2-1.1,12.9c0.4,1,0.4,2,1.1,2.8
			v0.4h0.4c-0.4-1.8-0.5-5.5,0.6-6.6c0.3-0.9,1.4-1.3,2.4-1.5c-0.1-1-0.3-2.3-0.7-2.9v-0.2c0.6,0.4,2.6,2.6,2.9,3.1
			c1.2,0,3.4,0,4.2,0.6h0.2c-0.7-2.5-3.1-4.6-3.9-7.2c0.1-0.5,0.1-1,0.2-1.5c-0.1-0.3-0.8-0.8-0.9-1.1c-0.2-0.5-0.1-1.1-0.4-1.5
			v-0.4h0.2c0.3,0.7,0.7,1.2,0.9,2c1.4-0.1,3.7-0.7,4.6-1.5H47v-0.2h-0.2c-0.7-0.9-3.2-2.5-4.2-3.1c0.1-1.4,0.9-2.1,1.1-3.1
			c0.1-0.6-1.8-4.8-2.2-5.2v-0.2c1.6,1.1,2.3,3.2,3.9,4.2c0.2,0.1,0,0.1,0.4,0.2c1.5-1.5,3-1.5,5.3-1.3c0.3,0.6,0.5,1.2,0.6,2H52
			c0.5-1.6,1.3-3.7,1.8-5.3c0.3-0.9,0.1-1.9,0.6-2.6C54.2,26.7,53.7,26.2,53.3,25.8z M29.7,29.5c0.3,1.1,1.3,2.4,1.7,3.9h0.9
			l1.8-4.2c-0.1-1.3-1.2-3.2-0.4-4.6c-0.2-0.8-0.4-0.7-0.9-1.1h-0.2v-0.2c0.8-0.4,1.7-1.1,2.4-1.7c0.1-0.2,0.1,0,0.2-0.4
			c-2-0.9-3-3.2-2.9-6.1h-0.4c-1,2.6-0.9,4.9-3.3,6.1c0.6,1.5,1.5,2.5,1.8,4.6C30.6,27,29.4,28.6,29.7,29.5z M28.1,40v-0.7
			c-1.3,0.5-2.6,0.5-3.9,0.2c-0.1-0.4-0.2-0.7-0.4-0.9c0-0.9,0.1-1.8-0.4-2.2c-0.5,0.8-1.3,1.6-2.2,2c0.1,0.6,0.3,1.2,0,1.7
			c-0.3-0.1-0.2-0.4-0.6-0.6c-0.5-0.2-3.4,1.9-3.9,2.2c0.8,1,3.4,1.3,4.6,1.8c0.3-0.6,0.7-1.5,1.1-2v-0.2h0.2
			c-0.1,0.7-0.3,1.7-0.2,2c-0.2,0.7-0.5,0.8-1.1,1.1c0.1,0.5,0.3,1.1,0.6,1.5c-0.1,1.7-2.5,5.9-3.5,6.8v0.2c1.3,0,4.9-0.4,5.7-0.9
			c2.4,0.1,3.4,3.4,4.2,5.2c0.1,0.1,0.2,0.1,0.4,0.2c0.2-0.6,0.3-1.2,0.6-1.8c0.1-0.2,0.7-0.7,0.7-0.9c0.2-0.5-1.2-7-1.5-7.9
			C28.2,45.1,26.8,41.9,28.1,40z M32.1,39.1c-0.4,0.1-0.9-0.5-1.5-0.6c0.3,1.8,0.3,3.5-0.9,4.4c0.4,1.4,1.6,1.8,1.7,3.9
			c0.2,0.2,0,0,0.2,0.2c0.4,0,0.5,0,0.7-0.2c0.9-1.3,0.5-2.5,1.8-3.5c-0.6-1.7-1.2-2-1.1-4.8C32.7,38.6,32.3,39.1,32.1,39.1z
			 M27.3,60.1v0.4h0.4c0.2-0.9,0.7-1.5,0.9-2.4c-0.4-0.3-0.5-0.5-1.1-0.7C27.5,58.2,27.7,59.6,27.3,60.1z"/>
	</g>
</g>
</svg>
