<?xml version="1.0" encoding="utf-8"?>
<!-- Generator: Adobe Illustrator 25.4.1, SVG Export Plug-In . SVG Version: 6.00 Build 0)  -->
<svg version="1.1" id="class-icons" xmlns="http://www.w3.org/2000/svg" xmlns:xlink="http://www.w3.org/1999/xlink" x="0px"
	 y="0px" viewBox="0 0 64 64" style="enable-background:new 0 0 64 64;" xml:space="preserve">
<style type="text/css">
	.st0{fill:url(#SVGID_1_);}
</style>
<g id="monk_00000121966124956415582580000005964765480769018000_">
	<g>
		<linearGradient id="SVGID_1_" gradientUnits="userSpaceOnUse" x1="32" y1="58.9266" x2="32" y2="5.0734">
			<stop  offset="0" style="stop-color:#9B7644"/>
			<stop  offset="1" style="stop-color:#D7AB6D"/>
		</linearGradient>
		<path class="st0" d="M54.4,21.2c-1-1.9-2.1-3.8-3.1-5.7c-3.6-5.1-7.9-8.4-14.8-10.3c-0.9-0.2-2.3,0.2-2.9,0.2
			c-5.2-0.1-8.7,2.9-9.9,7.6c-0.1,0.5-0.5,2.1-0.4,2.7c0.4,2,1.5,3.7,2.5,5.1c1,0,2.4,0,3.1,0.4c0.2,0.3,0.3,1,0.4,1.4
			c1.2,0.1,2.3,0.7,3.7,0.4c4.9-1.1,6.8-3.9,7.4-9.2c5.9,0,8.5,2.4,10.7,6c0.6,1,0.9,2.2,1.6,3.1c0,0.1,0,0.1,0,0.2
			C53.6,22.7,54.2,22,54.4,21.2z M35.1,15.8c-0.8,2.1-1.9,0.9-3.3,1.8c-0.9,0.7-1.3,2.2-2.3,2.9c-0.2,0.2,0,0-0.2,0.2
			c0-0.1,0-0.1,0-0.2c-0.2-0.4,0.5-1.6,0.6-2.3c-0.2-1.3-0.4-2.6-0.6-3.9c0.3-1.4,1.2-1.9,2.1-2.7c2.1,0,2.5,0.5,3.7,1.2
			C35.4,13.9,35.8,15,35.1,15.8z M19.1,40.7c1,0.3,2.2,0.8,2.9,1.4c3.6-0.4,8-4.1,7.2-8c-0.2-0.9,0-1.8-0.4-2.5
			c-0.2-2.5-2.5-3.8-3.9-5.1c-0.5,0-1.1,0-1.6,0c-0.5,0.5-0.9,1.2-1.4,1.6c-0.4-0.8-0.8-1.4-1.2-2.1c-1.1-0.2-2.8,0-3.7,0.6
			c-2.5-0.2-2.1-4-2.5-6.6c-0.6-4.1,5.9-11,8.8-12.7C23,7.2,23,7.3,22.6,7.2c-1.5,1.2-3.8,1.7-5.3,2.9c-0.5,0.4-1.6,1.5-1.8,2.1
			c-0.1,0.6-0.3,1.2-0.4,1.8c-0.4,0.6-1.6,0.7-2.1,1.4c-1.3,2.1-4.4,8.5-3.1,11.7c0.3,0.7-0.1,2.3-0.2,2.7c-0.2,1,0.5,4.6,0.8,5.3
			c1.1,2.3,3.2,4.8,5.3,6.2c0.8,0.5,1.8,0.4,2.5,1c0.4-0.1,0.4-0.1,0.6-0.2C19.1,41.8,19.1,41.3,19.1,40.7z M17.9,35.5
			c-0.3-1-0.7-2.2,0-3.1c0.3-1,1-1,1.6-1.6c0.8,0,1.5,0,2.3,0c0.6,0.7,1.2,1.3,1.8,2.1c0,1,0,1.7-0.4,2.3
			C22.4,37.7,19.3,36.6,17.9,35.5z M7.4,12.7c0-0.1,0-0.3,0-0.4c0.9,0.3,2.5,0.2,3.7,0.2c-0.1-0.4-0.1-0.4-0.2-0.6
			c0-0.1,0-0.3,0-0.4c0.8,0.2,1.1,0.4,1.4,1c1.2-0.3,1-1.1,1.6-1.8c0-0.1,0-0.3,0-0.4c-1.3-0.3-9-0.7-10.1,0c-0.1,0-0.3,0-0.4,0
			c0.3,2.6,2.6,4.6,3.7,6.6c1-0.2,0.9-0.6,1.4-1.2C8.5,14.5,8.1,13.4,7.4,12.7z M55.9,12.3c0.2-1,0-1.2-0.2-2.1c-1.7,0-3.4,0-5.1,0
			c-0.2,0.9,0.2,1.5,0.6,2.3C52.6,12.6,54.7,12.7,55.9,12.3z M60.2,10.7c0-0.1,0-0.3,0-0.4c-1.2,0-2.5,0-3.7,0
			c0.2,0.7,0.8,1.9,0.6,2.3c-0.3,1.7-1.7,2.6-2.5,3.9c-0.2,0.4-0.2,1.3-0.4,1.6c0.1,0.8,0.4,1.2,0.8,1.6c0,0.1,0,0.1,0,0.2
			c0.7-0.3,1.9-2.1,2.1-2.9c0.1-0.6-0.4-0.8,0-1.4c0.3-0.5,1-0.7,1.4-1c0.7-0.5,1.6-2.2,1.8-3.1C60.6,11.3,60.4,11,60.2,10.7z
			 M22,14.4c-0.1,0-0.3,0-0.4,0c-1.3,1.4-3,2.6-4.1,4.1c-0.6,0.9-0.6,2.6-1.4,3.3c0,0.3,0,0.7,0,1c0.4,0.1,0.2,0,0.4,0.2
			c1.4-0.2,2.7-3.5,2.5-4.7c1.6-0.6,1.9-1.4,3.1-2.3C22,15.5,22,14.9,22,14.4z M46.4,23c0.1,0.8,0.2,0.8,0.4,1.2
			c0.4,0.1,0.8,0.1,1.2,0.2c0.2-0.2,0,0,0.2-0.2c-0.2-4.1-3.1-5.4-4.5-8.2c-0.4-0.1-0.8-0.1-1.2-0.2c-0.4,1.3,3.1,5.2,4.3,5.7
			C46.7,22.4,46.2,22.5,46.4,23z M9.5,16.6c-0.3,0.5-0.7,1.1-1,1.6c0.1,0.8,0.2,1,0.6,1.4c0,0.1,0,0.1,0,0.2
			C10.1,19.4,10.1,17.3,9.5,16.6z M54.2,27.1c0,1,0,1.9,0,2.9c0.1,0,0.1,0,0.2,0c0.3-1.5,1.4-5.3,0.2-6.8
			C53.9,24.2,53.1,25.6,54.2,27.1z M43.3,25.5c-0.4,0.3-1,0.3-1.4,0.6c-0.4,0.3-0.4,0.9-0.8,1.2c-0.5,0.2-1.5-0.1-2.5-0.2
			c-0.5,0.5-1.5,0.9-1.8,1.4c-3,4.9-1.4,10,2.9,12.7c-1.1,5.6-10.6,6.9-16.8,4.9c-1.3-0.4-2.6-0.4-3.5-1.2c-0.1,0-0.3,0-0.4,0
			c2,3,10.8,5.7,16.4,4.5c0.1,0,1.8,0.1,2.7-0.2c5.9-1.8,11.4-5.3,13.8-10.7c0.1-0.8,0.1-1.5,0.2-2.3C53.4,30.3,49.3,25.4,43.3,25.5
			z M44.8,37c-0.6,0-1.2,0-1.8,0c-0.7-0.7-1.4-1.2-2.1-2.1c0-2.6,0.9-2.6,2.3-3.7c0.6,0,0.9,0,1.2,0.2c1.1,0.1,1.3,0.6,2.1,1
			c0.2,0.8,0.4,1.3,0.4,2.5C46.1,35.7,45.6,36.3,44.8,37z M34.3,43.5c0.9-0.2,1.7-0.8,2.5-1.2c-0.1-0.7-0.2-0.6-0.4-1
			c-0.2,0-0.4,0-0.6,0c-0.2,0.1-0.5,0.3-0.6,0.4c-1,0.1-1.1,0.1-1.2,1c-0.8-0.5-4.3-1.8-5.5-1c-0.6,0.2-0.6,0.4-1,0.6
			C27.8,43.1,32.4,44,34.3,43.5z M27.7,51.3c-0.2,0.2-0.3,0.2-0.8,0.2c0.4,1.3,2.3,4,3.7,4.3c0.2,0.2,0.1,0.1,0.4,0.2
			c0.1-0.3,0.2-0.4,0.4-0.6C31.3,53.4,29.6,51.7,27.7,51.3z M31.2,56.9c0.1,1,0.4,1.4,1,1.8c0,0.1,0,0.1,0,0.2c0.1,0,0.1,0,0.2,0
			c0.2-0.3,0.4-0.5,0.6-0.8c0.2-0.5,0-0.4-0.2-1c0.9-0.5,2.1-1,2.5-2.1c0-0.4,0-0.8,0-1.2c0.1,0,0.1,0,0.2,0
			c0.5-0.7,1.2-1.6,1.8-2.3c0-0.1,0-0.1,0-0.2c-0.8,0-1.6,0-2.5,0C34.5,52.7,32.4,56.3,31.2,56.9z"/>
	</g>
</g>
</svg>
