<?xml version="1.0" encoding="utf-8"?>
<!-- Generator: Adobe Illustrator 25.4.1, SVG Export Plug-In . SVG Version: 6.00 Build 0)  -->
<svg version="1.1" id="class-icons" xmlns="http://www.w3.org/2000/svg" xmlns:xlink="http://www.w3.org/1999/xlink" x="0px"
	 y="0px" viewBox="0 0 64 64" style="enable-background:new 0 0 64 64;" xml:space="preserve">
<style type="text/css">
	.st0{fill:url(#SVGID_1_);}
</style>
<g id="demonhunter_00000125597932773367565930000001779980864917535896_">
	<g>
		
			<linearGradient id="SVGID_1_" gradientUnits="userSpaceOnUse" x1="32" y1="7.4037" x2="32" y2="60.5963" gradientTransform="matrix(1 0 0 -1 0 66)">
			<stop  offset="0" style="stop-color:#9B7644"/>
			<stop  offset="1" style="stop-color:#D7AB6D"/>
		</linearGradient>
		<path class="st0" d="M33.1,44.6c0-5.4,0-10.7,0-16.1c0-2.1,0.5-5.2-0.2-6.9c-0.1-0.3-0.8-0.8-0.9-1.2c-0.5-1.9,2.3-5,2.8-6.4
			c0.2-0.6-0.7-1.9-1-2.6c-0.6-1.4-1.4-4.4-1.5-6c-0.1,0-0.2,0-0.3,0c-0.2,1.9-2.3,6-1,7.3c0.2,0.2,0,0,0.2,0.2
			c0.3-0.8,0.6-1.6,0.9-2.4c0.9,0.4,0.9,2.1,1.6,2.8c-0.2,1.2-1,1.7-1.2,2.8c-1.1-0.6-1.4-2.5-2.4-3.3c0-0.1,0-0.1,0-0.2
			c-1.6,1.7,0.8,3,1.4,4.5c0,1.4,0,2.8,0,4.2c0,5.4-0.2,11.5-0.2,17.2c0,1.6,1.3,3.4,1,4.5c-0.2,1-1,2-1.2,3.1
			c0.1,0.6,0.1,1.3,0.2,1.9c-0.6,3,0.2,4.9-2.1,6.4c0.4,0.8,1.4,1.3,1.9,2.1c0.4,0.6,0.5,1.5,1,2.1c0,0.1,0,0.1,0,0.2
			c0.1,0,0.1,0,0.2,0c0.5-0.9,0.9-1.7,1.4-2.6c0.4-0.6,1.2-0.8,1.6-1.4c0.1,0,0.1,0,0.2,0c0-0.1,0-0.1,0-0.2
			C32.6,52.7,33.1,48.8,33.1,44.6z M24.6,23.6c0.4,0,0.8,0,1.2,0c-0.1,4,0.9,4.9,3.3,6.4c0,0.1,0,0.2,0,0.3c0.1,0,0.1,0,0.2,0
			c0-3,0-6,0-9c-0.3-0.8-1.5-1.6-1.9-2.4c-0.6-1.2,0.1-3.5,0-4.7C26,16,25.9,19.3,24.3,21c0,0.1,0,0.2,0,0.3
			c0.7-0.3,1.5-0.4,2.6-0.3c-0.7,0.6-2.1,1.2-2.9,1.6c-0.2,0.5-0.3,1-0.5,1.6c0,0.2,0,0.5,0,0.7C23.9,24.5,24.3,24.1,24.6,23.6z
			 M39.4,30.5c-0.3-0.2-0.7-0.3-1-0.5c0-2.1,0-4.3,0-6.4c1.2,0,1.7,0.3,2.1,1c0.1,0,0.2,0,0.3,0c-0.1-0.7-0.2-1.5-0.5-1.9
			c-0.5-0.7-1.9-1.4-2.9-1.6c0.6-0.4,2-0.2,2.4,0.2c0.1,0,0.1,0,0.2,0c-0.7-2.4-2.6-4.4-2.9-7.1c-0.7,1.1,0.3,2.9,0,4.2
			c-0.2,0.8-1.4,2.4-2.1,2.9c0,7.2,0,14.3,0,21.5c0.8-0.5,1.3-1.2,2.1-1.7c0-1.4,0-2.8,0-4.2c-0.3-1-1.2-2.3,0-3.3
			c0-2.2,1.2-1.8,2.3-2.8C39.3,30.7,39.3,30.8,39.4,30.5z M42.3,24.1c0.3,1,0,2.2,0.5,2.9c0,0.1,0,0.1,0,0.2c0.4-0.6,0.6-2.1,1-2.9
			c0.8-0.1,1.3-0.3,1.9,0.2c0.5,0.4,0.5,1.3,0.9,1.9c0,0.1,0,0.1,0,0.2c0.3-0.4,0.3-0.9,0.7-1.2c0.2-0.3,1.1,0.5,1.4,0.7
			c1.1,0.7,2.3,1.9,2.4,3.6c0.4-0.3,0.6-0.5,1.2-0.7c0.7-0.1,0.3,0.4,0.9,0.7c1.2,0.7,3.6,0.2,4.5-0.5c0.1,0,0.1,0,0.2,0
			c0-0.1,0-0.1,0-0.2c-0.7-0.2-1.7-0.1-2.4-0.3c-1.1-0.4-1.9-1.7-2.8-2.4c-1.5-1.1-2.8-2-4.3-3.1c-0.7-0.5-0.9-1.7-1.6-2.1
			c-0.5-0.1-1-0.1-1.6-0.2c-0.5-0.2-1.4-0.9-1.7-1.4c-0.7-1-0.9-2.7-1.6-3.6c-0.2-0.4,0.1-0.1-0.3-0.3c0,1.5-0.5,4.8-0.3,5.5
			C41.5,21.9,42.1,23.1,42.3,24.1z M22.2,26.7c0.1,0,0.2,0,0.3,0c0-1.8,0.6-6.9,0-7.8c0-1.1,0-2.2,0-3.3c-0.1,0-0.2,0-0.3,0
			c-0.7,1.9-1.3,4.4-2.9,5.4c-0.6,0.4-1.6,0-2.3,0.3c-0.2,0.1-0.8,1.4-1.2,1.7c-1.5,1.1-2.9,2-4.3,3.1c-0.7,0.6-1.3,1.6-2.1,2.1
			c-0.7,0.5-2.1,0.2-2.9,0.7c-0.1,0-0.1,0-0.2,0c0,0.1,0,0.1,0,0.2c0.1,0,0.1,0,0.2,0c1.2,1,2.9,0.7,4.5,0.5c0,0.9-0.2,1.3-0.7,1.7
			c0,0.1,0,0.2,0,0.3c0.8,0,1.5,0,2.3,0c0.6-3.3,1.8-5.4,4.3-6.8c0.6-0.3,1.2-0.3,1.7-0.7C21.1,24.2,21.2,25.4,22.2,26.7z
			 M27.2,41.1c0.6,0.6,1.3,1.2,1.9,1.7c0.1,0,0.1,0,0.2,0c0.1-7,1.2-11.7-3.5-14.4c0.1,1.4-0.1,1.7-1,2.1c0.3,0.7,1.6,1.4,2.4,1.6
			c0.1,2,1.3,3.6,0,4.9C27.2,38.3,27.2,39.7,27.2,41.1z M58.4,31.2c-0.6,0.1-1.2,0.1-1.7,0.2c-1.5-0.3-3.4-1.1-4.7-1.6
			c-0.3,0.4-0.8,0.9-0.3,1.6c0.1,0.2,3.4,0.8,3.8,0.9c-0.4,0.7-0.8,1.5-1.4,2.1c0,0.1,0,0.1,0,0.2c0.6,0,5.6-1.3,6.1-1.6
			c0.3-0.1,0.2,0,0.3-0.2C59.6,32.5,59.2,31.5,58.4,31.2z M8.3,33c0-0.1,0-0.2,0-0.3c0.5-0.2,0.7-0.4,1.4-0.5c0-0.4,0-0.6,0.2-0.9
			c0-0.1,0-0.2,0-0.3c-1,0-1.9,0.1-2.4,0.5c-2.1-0.1-3,0.5-3.8,1.7c-0.1,0-0.1,0-0.2,0c0.4,0.2,0.4-0.1,0.9,0c1.6,0.4,3.8,1.2,5,2.1
			c0.4,0,0.6-0.1,0.9-0.2C10.1,33.9,9.2,33.4,8.3,33z M13.7,32.3c-0.6,0.1-1.2,0.2-1.6,0.5c-0.1,0-0.2,0-0.3,0
			c0.9,0.9,3,2.1,4.5,2.3c0-0.6-0.1-0.7-0.3-1C15.6,32.9,14.5,32.9,13.7,32.3z M47.9,33.5c-2.2,1-4.7,2.4-6.8,3.6
			c-0.7,0.4-1.5,0.5-2.1,1c-0.1,0-0.2,0-0.3,0c0.6,0.3,2.5-0.5,3.3-0.9c2.6-1.1,8.5-2.4,10-4.3c0.3-0.1,0.2,0,0.3-0.2
			c-0.6-0.2-1.3-0.3-1.9-0.5C49.8,32.9,48.8,33.1,47.9,33.5z M17.2,35.2c0.4,0.7,1.2,0.6,1.9,0.9c1.8,0.8,5.2,1.6,6.8,2.8
			c0.1,0,0.1,0,0.2,0c0-0.1,0-0.2,0-0.3c-2.3-1.1-4.5-2.9-7.1-3.5C18.6,35.3,17.8,35.2,17.2,35.2z"/>
	</g>
</g>
</svg>
